<svg width="73" height="13" viewBox="0 0 73 13" fill="none" xmlns="http://www.w3.org/2000/svg">
<path fill-rule="evenodd" clip-rule="evenodd" d="M73 0H0V13H73V0ZM6.78532 0.878115C6.69551 0.601722 6.30449 0.601723 6.21468 0.878116L5.10801 4.28409C5.06785 4.4077 4.95266 4.49139 4.8227 4.49139H1.24144C0.950821 4.49139 0.829989 4.86327 1.0651 5.03409L3.9624 7.13911C4.06755 7.2155 4.11154 7.35091 4.07138 7.47452L2.96471 10.8805C2.87491 11.1569 3.19125 11.3867 3.42637 11.2159L6.32366 9.1109C6.42881 9.0345 6.57119 9.0345 6.67634 9.1109L9.57364 11.2159C9.80875 11.3867 10.1251 11.1569 10.0353 10.8805L8.92862 7.47452C8.88846 7.35091 8.93245 7.2155 9.0376 7.13911L11.9349 5.03409C12.17 4.86327 12.0492 4.49139 11.7586 4.49139H8.1773C8.04734 4.49139 7.93215 4.4077 7.89199 4.28409L6.78532 0.878115ZM21.2147 0.878116C21.3045 0.601723 21.6955 0.601722 21.7853 0.878115L22.892 4.28409C22.9321 4.4077 23.0473 4.49139 23.1773 4.49139H26.7586C27.0492 4.49139 27.17 4.86327 26.9349 5.03409L24.0376 7.13911C23.9325 7.2155 23.8885 7.35091 23.9286 7.47452L25.0353 10.8805C25.1251 11.1569 24.8087 11.3867 24.5736 11.2159L21.6763 9.1109C21.5712 9.0345 21.4288 9.0345 21.3237 9.1109L18.4264 11.2159C18.1913 11.3867 17.8749 11.1569 17.9647 10.8805L19.0714 7.47452C19.1115 7.35091 19.0675 7.2155 18.9624 7.13911L16.0651 5.03409C15.83 4.86327 15.9508 4.49139 16.2414 4.49139H19.8227C19.9527 4.49139 20.0679 4.4077 20.108 4.28409L21.2147 0.878116ZM36.7853 0.878115C36.6955 0.601722 36.3045 0.601723 36.2147 0.878116L35.108 4.28409C35.0679 4.4077 34.9527 4.49139 34.8227 4.49139H31.2414C30.9508 4.49139 30.83 4.86327 31.0651 5.03409L33.9624 7.13911C34.0675 7.2155 34.1115 7.35091 34.0714 7.47452L32.9647 10.8805C32.8749 11.1569 33.1913 11.3867 33.4264 11.2159L36.3237 9.1109C36.4288 9.0345 36.5712 9.0345 36.6763 9.1109L39.5736 11.2159C39.8088 11.3867 40.1251 11.1569 40.0353 10.8805L38.9286 7.47452C38.8885 7.35091 38.9325 7.2155 39.0376 7.13911L41.9349 5.03409C42.17 4.86327 42.0492 4.49139 41.7586 4.49139H38.1773C38.0473 4.49139 37.9321 4.4077 37.892 4.28409L36.7853 0.878115ZM51.2147 0.878116C51.3045 0.601723 51.6955 0.601722 51.7853 0.878115L52.892 4.28409C52.9321 4.4077 53.0473 4.49139 53.1773 4.49139H56.7586C57.0492 4.49139 57.17 4.86327 56.9349 5.03409L54.0376 7.13911C53.9325 7.2155 53.8885 7.35091 53.9286 7.47452L55.0353 10.8805C55.1251 11.1569 54.8088 11.3867 54.5736 11.2159L51.6763 9.1109C51.5712 9.0345 51.4288 9.0345 51.3237 9.1109L48.4264 11.2159C48.1913 11.3867 47.8749 11.1569 47.9647 10.8805L49.0714 7.47452C49.1115 7.35091 49.0675 7.2155 48.9624 7.13911L46.0651 5.03409C45.83 4.86327 45.9508 4.49139 46.2414 4.49139H49.8227C49.9527 4.49139 50.0679 4.4077 50.108 4.28409L51.2147 0.878116ZM66.7853 0.878115C66.6955 0.601722 66.3045 0.601723 66.2147 0.878116L65.108 4.28409C65.0678 4.4077 64.9527 4.49139 64.8227 4.49139H61.2414C60.9508 4.49139 60.83 4.86327 61.0651 5.03409L63.9624 7.13911C64.0676 7.2155 64.1115 7.35091 64.0714 7.47452L62.9647 10.8805C62.8749 11.1569 63.1913 11.3867 63.4264 11.2159L66.3237 9.1109C66.4288 9.0345 66.5712 9.0345 66.6763 9.1109L69.5736 11.2159C69.8087 11.3867 70.1251 11.1569 70.0353 10.8805L68.9286 7.47452C68.8885 7.35091 68.9324 7.2155 69.0376 7.13911L71.9349 5.03409C72.17 4.86327 72.0492 4.49139 71.7586 4.49139H68.1773C68.0473 4.49139 67.9322 4.4077 67.892 4.28409L66.7853 0.878115Z" fill="#F3F3F3"/>
<path d="M20.5835 4.4386L21.5 1.61803L22.4165 4.4386C22.5236 4.76822 22.8307 4.99139 23.1773 4.99139H26.143L23.7437 6.7346C23.4633 6.93831 23.346 7.29941 23.4531 7.62902L24.3695 10.4496L21.9702 8.70639C21.6898 8.50267 21.3102 8.50267 21.0298 8.70639L18.6305 10.4496L19.5469 7.62902C19.654 7.29941 19.5367 6.93831 19.2563 6.7346L16.857 4.99139H19.8227C20.1693 4.99139 20.4764 4.76822 20.5835 4.4386Z" stroke="#F3B705"/>
<path d="M35.5835 4.4386L36.5 1.61803L37.4165 4.4386C37.5236 4.76822 37.8307 4.99139 38.1773 4.99139H41.143L38.7437 6.7346C38.4633 6.93831 38.346 7.29941 38.4531 7.62902L39.3695 10.4496L36.9702 8.70639C36.6898 8.50267 36.3102 8.50267 36.0298 8.70639L33.6305 10.4496L34.5469 7.62902C34.654 7.29941 34.5367 6.93831 34.2563 6.7346L31.857 4.99139H34.8227C35.1693 4.99139 35.4764 4.76822 35.5835 4.4386Z" stroke="#F3B705"/>
<path d="M50.5835 4.4386L51.5 1.61803L52.4165 4.4386C52.5236 4.76822 52.8307 4.99139 53.1773 4.99139H56.143L53.7437 6.7346C53.4633 6.93831 53.346 7.29941 53.4531 7.62902L54.3695 10.4496L51.9702 8.70639C51.6898 8.50267 51.3102 8.50267 51.0298 8.70639L48.6305 10.4496L49.5469 7.62902C49.654 7.29941 49.5367 6.93831 49.2563 6.7346L46.857 4.99139H49.8227C50.1693 4.99139 50.4764 4.76822 50.5835 4.4386Z" stroke="#F3B705"/>
<path d="M5.58354 4.4386L6.5 1.61803L7.41646 4.4386C7.52356 4.76822 7.83072 4.99139 8.1773 4.99139H11.143L8.74371 6.7346C8.46332 6.93831 8.34599 7.29941 8.45309 7.62902L9.36955 10.4496L6.97023 8.70639C6.68984 8.50267 6.31016 8.50267 6.02977 8.70639L3.63045 10.4496L4.54691 7.62902C4.65401 7.29941 4.53668 6.93831 4.25629 6.7346L1.85697 4.99139H4.8227C5.16928 4.99139 5.47644 4.76822 5.58354 4.4386Z" stroke="#F3B705"/>
<path d="M65.5835 4.4386L66.5 1.61803L67.4165 4.4386C67.5236 4.76822 67.8307 4.99139 68.1773 4.99139H71.143L68.7437 6.7346C68.4633 6.93831 68.346 7.29941 68.4531 7.62902L69.3695 10.4496L66.9702 8.70639C66.6898 8.50267 66.3102 8.50267 66.0298 8.70639L63.6305 10.4496L64.5469 7.62902C64.654 7.29941 64.5367 6.93831 64.2563 6.7346L61.857 4.99139H64.8227C65.1693 4.99139 65.4764 4.76822 65.5835 4.4386Z" stroke="#F3B705"/>
</svg>
