<svg width="98" height="18" viewBox="0 0 98 18" fill="none" xmlns="http://www.w3.org/2000/svg">
<path fill-rule="evenodd" clip-rule="evenodd" d="M8.99171 0H0V18H98V7.00708C97.9998 7.13434 97.9585 7.26161 97.8721 7.35882L93.8046 11.5505L94.7671 17.419C94.8603 17.7916 94.4256 18.1021 94.084 17.9158L89.054 15.1523L83.9928 17.9158C83.6202 18.1642 83.2166 17.8226 83.2787 17.419L84.2412 11.5505L80.1737 7.35882C79.8632 7.07937 80.0184 6.55152 80.4221 6.48942L86.0111 5.65107L88.5572 0.279449C88.6503 0.0932022 88.821 5.26736e-05 88.9917 0H68.9919H48.992C49.1627 5.26736e-05 49.3334 0.0932022 49.4266 0.279449L51.9726 5.62002L57.5927 6.48942C57.9963 6.55152 58.1205 7.07937 57.8721 7.35882L53.8046 11.5505L54.7671 17.419C54.8603 17.7916 54.4256 18.1021 54.084 17.9158L49.054 15.1523L43.9928 17.9158C43.6202 18.1642 43.2166 17.8226 43.2787 17.419L44.2412 11.5505L40.1737 7.35882C39.8632 7.07937 40.0184 6.55152 40.4221 6.48942L46.0111 5.65107L48.5572 0.279449C48.6503 0.0932022 48.821 5.26736e-05 48.9917 0L28.992 2.23328e-08C29.1627 5.26736e-05 29.3334 0.0932022 29.4266 0.279449L31.9726 5.62002L37.5927 6.48942C37.9963 6.55152 38.1205 7.07937 37.8721 7.35882L33.8046 11.5505L34.7671 17.419C34.8603 17.7916 34.4256 18.1021 34.084 17.9158L29.054 15.1523L23.9928 17.9158C23.6202 18.1642 23.2166 17.8226 23.2787 17.419L24.2412 11.5505L20.1737 7.35882C19.8632 7.07937 20.0184 6.55152 20.4221 6.48942L26.0111 5.65107L28.5572 0.279449C28.6503 0.0931496 28.8211 0 28.9919 0H8.992C9.16273 5.26512e-05 9.33343 0.0932022 9.42655 0.279449L11.9726 5.62002L17.5927 6.48942C17.9963 6.55152 18.1205 7.07937 17.8721 7.35882L13.8046 11.5505L14.7671 17.419C14.8603 17.7916 14.4256 18.1021 14.084 17.9158L9.05396 15.1523L3.99283 17.9158C3.62023 18.1642 3.21658 17.8226 3.27868 17.419L4.24123 11.5505L0.173696 7.35882C-0.136802 7.07937 0.0184469 6.55152 0.422095 6.48942L6.01107 5.65107L8.55716 0.279449C8.65028 0.0932022 8.82098 5.26512e-05 8.99171 0ZM68.9919 0C68.8211 0 68.6503 0.0931496 68.5572 0.279449L66.0111 5.65107L60.4221 6.48942C60.0184 6.55152 59.8632 7.07937 60.1737 7.35882L64.2412 11.5505L63.2787 17.419C63.2166 17.8226 63.6202 18.1642 63.9928 17.9158L69.054 15.1523L74.084 17.9158C74.4256 18.1021 74.8603 17.7916 74.7671 17.419L73.8046 11.5505L77.8721 7.35882C78.1205 7.07937 77.9963 6.55152 77.5927 6.48942L71.9726 5.62002L69.4266 0.279449C69.3334 0.0931496 69.1626 0 68.9919 0ZM88.992 2.23328e-08C89.1627 5.26736e-05 89.3334 0.0932022 89.4266 0.279449L91.9726 5.62002L97.5927 6.48942C97.8554 6.52984 97.9997 6.76753 98 7.00563V0L88.992 2.23328e-08Z" fill="white"/>
<path d="M17.9322 6.78C17.8122 6.42 17.5122 6.15 17.1522 6.09L12.1422 5.31L9.89215 0.57C9.71215 0.21 9.38215 0 8.99215 0C8.60215 0 8.27215 0.21 8.12215 0.57L5.87215 5.34L0.832151 6.15C0.472151 6.21 0.172151 6.48 0.0521506 6.84C-0.0678494 7.2 0.0221506 7.62 0.292151 7.89L3.92215 11.61L3.08215 16.8C3.02215 17.19 3.17215 17.58 3.50215 17.82C3.68215 17.94 3.86215 18 4.04215 18C4.19215 18 4.37215 17.97 4.49215 17.88L8.99215 15.42L13.4622 17.85C13.7922 18.03 14.1822 18 14.4822 17.79C14.8122 17.55 14.9622 17.16 14.9022 16.77L14.0622 11.55L17.6922 7.83C17.9622 7.56 18.0522 7.14 17.9322 6.78ZM17.2422 7.41L13.6422 11.13C13.5222 11.25 13.4622 11.46 13.4922 11.64L14.3322 16.86C14.3622 17.07 14.2722 17.22 14.1522 17.28C14.0922 17.31 13.9422 17.4 13.7622 17.31L9.26215 14.88C9.08215 14.79 8.90215 14.79 8.72215 14.88L4.22215 17.34C4.04215 17.43 3.89215 17.37 3.83215 17.31C3.74215 17.25 3.62215 17.07 3.65215 16.89L4.52215 11.7C4.55215 11.52 4.49215 11.31 4.37215 11.19L0.742151 7.47C0.592151 7.32 0.592151 7.14 0.622151 7.02C0.682151 6.87 0.772151 6.78 0.922151 6.75L5.96215 5.94C6.14215 5.91 6.32215 5.79 6.38215 5.61L8.63215 0.84C8.72215 0.69 8.84215 0.6 8.99215 0.6C9.14215 0.6 9.26215 0.69 9.32215 0.84L11.5722 5.61C11.6622 5.79 11.8122 5.91 11.9922 5.94L17.0022 6.72C17.1522 6.75 17.2722 6.84 17.3022 6.99C17.3922 7.08 17.3922 7.29 17.2422 7.41Z" fill="#52503B"/>
<path d="M37.9322 6.78C37.8122 6.42 37.5122 6.15 37.1522 6.09L32.1422 5.31L29.8922 0.57C29.7122 0.21 29.3822 0 28.9922 0C28.6022 0 28.2722 0.21 28.1222 0.57L25.8722 5.34L20.8322 6.15C20.4722 6.21 20.1722 6.48 20.0522 6.84C19.9322 7.2 20.0222 7.62 20.2922 7.89L23.9222 11.61L23.0822 16.8C23.0222 17.19 23.1722 17.58 23.5022 17.82C23.6822 17.94 23.8622 18 24.0422 18C24.1922 18 24.3722 17.97 24.4922 17.88L28.9922 15.42L33.4622 17.85C33.7922 18.03 34.1822 18 34.4822 17.79C34.8122 17.55 34.9622 17.16 34.9022 16.77L34.0622 11.55L37.6922 7.83C37.9622 7.56 38.0522 7.14 37.9322 6.78ZM37.2422 7.41L33.6422 11.13C33.5222 11.25 33.4622 11.46 33.4922 11.64L34.3322 16.86C34.3622 17.07 34.2722 17.22 34.1522 17.28C34.0922 17.31 33.9422 17.4 33.7622 17.31L29.2622 14.88C29.0822 14.79 28.9022 14.79 28.7222 14.88L24.2222 17.34C24.0422 17.43 23.8922 17.37 23.8322 17.31C23.7422 17.25 23.6222 17.07 23.6522 16.89L24.5222 11.7C24.5522 11.52 24.4922 11.31 24.3722 11.19L20.7422 7.47C20.5922 7.32 20.5922 7.14 20.6222 7.02C20.6822 6.87 20.7722 6.78 20.9222 6.75L25.9622 5.94C26.1422 5.91 26.3222 5.79 26.3822 5.61L28.6322 0.84C28.7222 0.69 28.8422 0.6 28.9922 0.6C29.1422 0.6 29.2622 0.69 29.3222 0.84L31.5722 5.61C31.6622 5.79 31.8122 5.91 31.9922 5.94L37.0022 6.72C37.1522 6.75 37.2722 6.84 37.3022 6.99C37.3922 7.08 37.3922 7.29 37.2422 7.41Z" fill="#52503B"/>
<path d="M57.9322 6.78C57.8122 6.42 57.5122 6.15 57.1522 6.09L52.1422 5.31L49.8922 0.57C49.7122 0.21 49.3822 0 48.9922 0C48.6022 0 48.2722 0.21 48.1222 0.57L45.8722 5.34L40.8322 6.15C40.4722 6.21 40.1722 6.48 40.0522 6.84C39.9322 7.2 40.0222 7.62 40.2922 7.89L43.9222 11.61L43.0822 16.8C43.0222 17.19 43.1722 17.58 43.5022 17.82C43.6822 17.94 43.8622 18 44.0422 18C44.1922 18 44.3722 17.97 44.4922 17.88L48.9922 15.42L53.4622 17.85C53.7922 18.03 54.1822 18 54.4822 17.79C54.8122 17.55 54.9622 17.16 54.9022 16.77L54.0622 11.55L57.6922 7.83C57.9622 7.56 58.0522 7.14 57.9322 6.78ZM57.2422 7.41L53.6422 11.13C53.5222 11.25 53.4622 11.46 53.4922 11.64L54.3322 16.86C54.3622 17.07 54.2722 17.22 54.1522 17.28C54.0922 17.31 53.9422 17.4 53.7622 17.31L49.2622 14.88C49.0822 14.79 48.9022 14.79 48.7222 14.88L44.2222 17.34C44.0422 17.43 43.8922 17.37 43.8322 17.31C43.7422 17.25 43.6222 17.07 43.6522 16.89L44.5222 11.7C44.5522 11.52 44.4922 11.31 44.3722 11.19L40.7422 7.47C40.5922 7.32 40.5922 7.14 40.6222 7.02C40.6822 6.87 40.7722 6.78 40.9222 6.75L45.9622 5.94C46.1422 5.91 46.3222 5.79 46.3822 5.61L48.6322 0.84C48.7222 0.69 48.8422 0.6 48.9922 0.6C49.1422 0.6 49.2622 0.69 49.3222 0.84L51.5722 5.61C51.6622 5.79 51.8122 5.91 51.9922 5.94L57.0022 6.72C57.1522 6.75 57.2722 6.84 57.3022 6.99C57.3922 7.08 57.3922 7.29 57.2422 7.41Z" fill="#52503B"/>
<path d="M77.9322 6.78C77.8122 6.42 77.5122 6.15 77.1522 6.09L72.1422 5.31L69.8922 0.57C69.7122 0.21 69.3822 0 68.9922 0C68.6022 0 68.2722 0.21 68.1222 0.57L65.8722 5.34L60.8322 6.15C60.4722 6.21 60.1722 6.48 60.0522 6.84C59.9322 7.2 60.0222 7.62 60.2922 7.89L63.9222 11.61L63.0822 16.8C63.0222 17.19 63.1722 17.58 63.5022 17.82C63.6822 17.94 63.8622 18 64.0422 18C64.1922 18 64.3722 17.97 64.4922 17.88L68.9922 15.42L73.4622 17.85C73.7922 18.03 74.1822 18 74.4822 17.79C74.8122 17.55 74.9622 17.16 74.9022 16.77L74.0622 11.55L77.6922 7.83C77.9622 7.56 78.0522 7.14 77.9322 6.78ZM77.2422 7.41L73.6422 11.13C73.5222 11.25 73.4622 11.46 73.4922 11.64L74.3322 16.86C74.3622 17.07 74.2722 17.22 74.1522 17.28C74.0922 17.31 73.9422 17.4 73.7622 17.31L69.2622 14.88C69.0822 14.79 68.9022 14.79 68.7222 14.88L64.2222 17.34C64.0422 17.43 63.8922 17.37 63.8322 17.31C63.7422 17.25 63.6222 17.07 63.6522 16.89L64.5222 11.7C64.5522 11.52 64.4922 11.31 64.3722 11.19L60.7422 7.47C60.5922 7.32 60.5922 7.14 60.6222 7.02C60.6822 6.87 60.7722 6.78 60.9222 6.75L65.9622 5.94C66.1422 5.91 66.3222 5.79 66.3822 5.61L68.6322 0.84C68.7222 0.69 68.8422 0.6 68.9922 0.6C69.1422 0.6 69.2622 0.69 69.3222 0.84L71.5722 5.61C71.6622 5.79 71.8122 5.91 71.9922 5.94L77.0022 6.72C77.1522 6.75 77.2722 6.84 77.3022 6.99C77.3922 7.08 77.3922 7.29 77.2422 7.41Z" fill="#52503B"/>
<path d="M97.9322 6.78C97.8122 6.42 97.5122 6.15 97.1522 6.09L92.1422 5.31L89.8922 0.57C89.7122 0.21 89.3822 0 88.9922 0C88.6022 0 88.2722 0.21 88.1222 0.57L85.8722 5.34L80.8322 6.15C80.4722 6.21 80.1722 6.48 80.0522 6.84C79.9322 7.2 80.0222 7.62 80.2922 7.89L83.9222 11.61L83.0822 16.8C83.0222 17.19 83.1722 17.58 83.5022 17.82C83.6822 17.94 83.8622 18 84.0422 18C84.1922 18 84.3722 17.97 84.4922 17.88L88.9922 15.42L93.4622 17.85C93.7922 18.03 94.1822 18 94.4822 17.79C94.8122 17.55 94.9622 17.16 94.9022 16.77L94.0622 11.55L97.6922 7.83C97.9622 7.56 98.0522 7.14 97.9322 6.78ZM97.2422 7.41L93.6422 11.13C93.5222 11.25 93.4622 11.46 93.4922 11.64L94.3322 16.86C94.3622 17.07 94.2722 17.22 94.1522 17.28C94.0922 17.31 93.9422 17.4 93.7622 17.31L89.2622 14.88C89.0822 14.79 88.9022 14.79 88.7222 14.88L84.2222 17.34C84.0422 17.43 83.8922 17.37 83.8322 17.31C83.7422 17.25 83.6222 17.07 83.6522 16.89L84.5222 11.7C84.5522 11.52 84.4922 11.31 84.3722 11.19L80.7422 7.47C80.5922 7.32 80.5922 7.14 80.6222 7.02C80.6822 6.87 80.7722 6.78 80.9222 6.75L85.9622 5.94C86.1422 5.91 86.3222 5.79 86.3822 5.61L88.6322 0.84C88.7222 0.69 88.8422 0.6 88.9922 0.6C89.1422 0.6 89.2622 0.69 89.3222 0.84L91.5722 5.61C91.6622 5.79 91.8122 5.91 91.9922 5.94L97.0022 6.72C97.1522 6.75 97.2722 6.84 97.3022 6.99C97.3922 7.08 97.3922 7.29 97.2422 7.41Z" fill="#52503B"/>
</svg>
